<?xml version="1.0" standalone="no"?>
<svg xmlns="http://www.w3.org/2000/svg" width="289.28070633397317" height="93.20070633397313" viewBox="0 0 289.28070633397317 93.20070633397313"><path fill="#000000" fill-rule="nonzero" d="M8.56 31.12Q4.12 31.12 2.06 26.68Q0 22.24 0 15.44L0 15.44Q0 11.64 0.98 8.12Q1.96 4.60 4.14 2.30Q6.32 0 9.72 0L9.72 0Q12.64 0 14.58 1.42Q16.52 2.84 17.46 5.18Q18.40 7.52 18.40 10.36L18.40 10.36L12.84 10.72L12.72 9.88Q12.48 7.52 11.88 6.12Q11.28 4.72 9.64 4.72L9.64 4.72Q7.56 4.72 6.70 8.06Q5.84 11.40 5.84 15.76L5.84 15.76Q5.84 18.84 6.04 21Q6.24 23.16 7.08 24.78Q7.92 26.40 9.68 26.40L9.68 26.40Q11.16 26.40 12.02 24.56Q12.88 22.72 12.88 20.04L12.88 20.04L9.92 20.04L10.40 15.56L18.52 15.56L18.52 30.32L16.28 30.56L14.92 25Q14.56 26.56 14.02 27.80Q13.48 29.04 12.16 30.08Q10.84 31.12 8.56 31.12L8.56 31.12ZM32.04 31.12Q27.56 31.12 25.32 28.24Q23.08 25.36 23.08 20.68L23.08 20.68L23.08 0.80L28.96 0.56L28.96 21.16Q28.96 22.72 29.14 23.80Q29.32 24.88 30.04 25.64Q30.76 26.40 32.24 26.40L32.24 26.40Q33.64 26.40 34.30 25.62Q34.96 24.84 35.12 23.78Q35.28 22.72 35.28 21.08L35.28 21.08L35.28 1.04L40.64 0.56L40.64 20Q40.64 24.24 38.98 27.68Q37.32 31.12 32.04 31.12L32.04 31.12ZM53.96 31.12Q50.32 31.12 47.82 29.10Q45.32 27.08 44.16 23.68L44.16 23.68L49.12 21.36L49.60 22.16Q50.76 24.16 51.82 25.28Q52.88 26.40 54.48 26.40L54.48 26.40Q55.52 26.40 56.34 25.40Q57.16 24.40 57.16 23.20L57.16 23.20Q57.16 22.08 56.60 21.16Q56.04 20.24 55.16 19.68L55.16 19.68L49.92 16.56Q47.64 15.28 46.28 13.32Q44.92 11.36 44.92 8.92L44.92 8.92Q44.92 6.32 46.14 4.28Q47.36 2.24 49.46 1.12Q51.56 0 54.20 0L54.20 0Q57.28 0 59.44 1.52Q61.60 3.04 62.64 6.04L62.64 6.04L57.68 8.28Q57.52 7.96 57.00 6.84Q56.48 5.72 55.74 5.22Q55.00 4.72 53.92 4.72L53.92 4.72Q52.60 4.72 51.90 5.56Q51.20 6.40 51.20 7.72L51.20 7.72Q51.20 8.68 51.74 9.46Q52.28 10.24 53.04 10.68L53.04 10.68L57.88 13.52Q63.24 16.56 63.52 21.52L63.52 21.52Q63.52 24.36 62.26 26.54Q61 28.72 58.82 29.92Q56.64 31.12 53.96 31.12L53.96 31.12ZM72.16 30.32L66.56 30.80L66.56 24.92L72.16 24.92L72.16 30.32ZM82.80 30.32L76.92 30.80L76.92 1.04L82.80 0.56L82.80 30.32ZM98.12 30.32L92.28 30.80L92.28 5.24L86.16 5.24L86.60 0.56L104.20 0.56L103.72 5.24L98.12 5.24L98.12 30.32Z" transform="translate(0 0) scale(1.738)"></path><path fill="#000000" fill-rule="nonzero" d="M9.80 31.12Q6.16 31.12 3.66 29.10Q1.16 27.08 0 23.68L0 23.68L4.96 21.36L5.44 22.16Q6.60 24.16 7.66 25.28Q8.72 26.40 10.32 26.40L10.32 26.40Q11.36 26.40 12.18 25.40Q13 24.40 13 23.20L13 23.20Q13 22.08 12.44 21.16Q11.88 20.24 11 19.68L11 19.68L5.76 16.56Q3.48 15.28 2.12 13.32Q0.76 11.36 0.76 8.92L0.76 8.92Q0.76 6.32 1.98 4.28Q3.20 2.24 5.30 1.12Q7.40 0 10.04 0L10.04 0Q13.12 0 15.28 1.52Q17.44 3.04 18.48 6.04L18.48 6.04L13.52 8.28Q13.36 7.96 12.84 6.84Q12.32 5.72 11.58 5.22Q10.84 4.72 9.76 4.72L9.76 4.72Q8.44 4.72 7.74 5.56Q7.04 6.40 7.04 7.72L7.04 7.72Q7.04 8.68 7.58 9.46Q8.12 10.24 8.88 10.68L8.88 10.68L13.72 13.52Q19.08 16.56 19.36 21.52L19.36 21.52Q19.36 24.36 18.10 26.54Q16.84 28.72 14.66 29.92Q12.48 31.12 9.80 31.12L9.80 31.12ZM31.28 31.12Q26.20 31.12 24.14 26.74Q22.08 22.36 22.08 15.40L22.08 15.40Q22.08 8.00 24.28 4Q26.48 0 31.36 0L31.36 0Q40.68 0 40.68 15.24L40.68 15.24Q40.68 22.08 38.58 26.60Q36.48 31.12 31.28 31.12L31.28 31.12ZM31.36 26.40Q33.48 26.40 34.16 23.62Q34.84 20.84 34.84 15.20L34.84 15.20Q34.84 10.68 34.18 7.70Q33.52 4.72 31.36 4.72L31.36 4.72Q29.20 4.72 28.56 7.68Q27.92 10.64 27.92 15.16L27.92 15.16Q27.92 20.84 28.58 23.62Q29.24 26.40 31.36 26.40L31.36 26.40ZM60.24 30.56L45.16 30.56L45.16 1.04L51 0.56L51 25.88L60.84 25.88L60.24 30.56ZM72.64 31.12Q68.16 31.12 65.92 28.24Q63.68 25.36 63.68 20.68L63.68 20.68L63.68 0.80L69.56 0.56L69.56 21.16Q69.56 22.72 69.74 23.80Q69.92 24.88 70.64 25.64Q71.36 26.40 72.84 26.40L72.84 26.40Q74.24 26.40 74.90 25.62Q75.56 24.84 75.72 23.78Q75.88 22.72 75.88 21.08L75.88 21.08L75.88 1.04L81.24 0.56L81.24 20Q81.24 24.24 79.58 27.68Q77.92 31.12 72.64 31.12L72.64 31.12ZM96.36 30.32L90.52 30.80L90.52 5.24L84.40 5.24L84.84 0.56L102.44 0.56L101.96 5.24L96.36 5.24L96.36 30.32ZM111.60 30.32L105.72 30.80L105.72 1.04L111.60 0.56L111.60 30.32ZM125.28 31.12Q120.20 31.12 118.14 26.74Q116.08 22.36 116.08 15.40L116.08 15.40Q116.08 8.00 118.28 4Q120.48 0 125.36 0L125.36 0Q134.68 0 134.68 15.24L134.68 15.24Q134.68 22.08 132.58 26.60Q130.48 31.12 125.28 31.12L125.28 31.12ZM125.36 26.40Q127.48 26.40 128.16 23.62Q128.84 20.84 128.84 15.20L128.84 15.20Q128.84 10.68 128.18 7.70Q127.52 4.72 125.36 4.72L125.36 4.72Q123.20 4.72 122.56 7.68Q121.92 10.64 121.92 15.16L121.92 15.16Q121.92 20.84 122.58 23.62Q123.24 26.40 125.36 26.40L125.36 26.40ZM158 30.32L153.16 30.80L144.40 12.04L144.40 30.32L139.16 30.56L139.16 0.80L145.28 0.56L153.04 18.40L153.04 1.04L158 0.56L158 30.32ZM171.52 31.12Q167.88 31.12 165.38 29.10Q162.88 27.08 161.72 23.68L161.72 23.68L166.68 21.36L167.16 22.16Q168.32 24.16 169.38 25.28Q170.44 26.40 172.04 26.40L172.04 26.40Q173.08 26.40 173.90 25.40Q174.72 24.40 174.72 23.20L174.72 23.20Q174.72 22.08 174.16 21.16Q173.60 20.24 172.72 19.68L172.72 19.68L167.48 16.56Q165.20 15.28 163.84 13.32Q162.48 11.36 162.48 8.92L162.48 8.92Q162.48 6.32 163.70 4.28Q164.92 2.24 167.02 1.12Q169.12 0 171.76 0L171.76 0Q174.84 0 177 1.52Q179.16 3.04 180.20 6.04L180.20 6.04L175.24 8.28Q175.08 7.96 174.56 6.84Q174.04 5.72 173.30 5.22Q172.56 4.72 171.48 4.72L171.48 4.72Q170.16 4.72 169.46 5.56Q168.76 6.40 168.76 7.72L168.76 7.72Q168.76 8.68 169.30 9.46Q169.84 10.24 170.60 10.68L170.60 10.68L175.44 13.52Q180.80 16.56 181.08 21.52L181.08 21.52Q181.08 24.36 179.82 26.54Q178.56 28.72 176.38 29.92Q174.20 31.12 171.52 31.12L171.52 31.12Z" transform="translate(0 62.081) scale(1)"></path><g fill="#ead017" color="#ead017" transform="translate(196.08 0) scale(1.9416814)"><svg width="48.0" height="48.0" x="0.0" y="0.0" viewBox="0 0 48 48"><g><path d="M12.8,32.1h-2.1c-0.6,0-1,0.4-1,1s0.4,1,1,1h2.1c0.6,0,1-0.4,1-1S13.3,32.1,12.8,32.1z"></path><path d="M25,35.2H23c-0.6,0-1,0.4-1,1s0.4,1,1,1H25c0.6,0,1-0.4,1-1S25.6,35.2,25,35.2z"></path><path d="M25,29.2H23c-0.6,0-1,0.4-1,1s0.4,1,1,1H25c0.6,0,1-0.4,1-1S25.6,29.2,25,29.2z"></path><path d="M35.2,34.1h2.1c0.6,0,1-0.4,1-1s-0.4-1-1-1h-2.1c-0.6,0-1,0.4-1,1S34.7,34.1,35.2,34.1z"></path><path d="M24,25.4c0.6,0,1-0.4,1-1v-3.6c0-0.6-0.4-1-1-1c-0.6,0-1,0.4-1,1v3.6C23,24.9,23.5,25.4,24,25.4z"></path><path d="M11.7,26.4c0.6,0,1-0.4,1-1v-1.9c0-0.6-0.4-1-1-1c-0.6,0-1,0.4-1,1v1.9C10.7,25.9,11.2,26.4,11.7,26.4z"></path><path d="M36.3,26.4c0.6,0,1-0.4,1-1v-1.9c0-0.6-0.4-1-1-1s-1,0.4-1,1v1.9C35.3,25.9,35.7,26.4,36.3,26.4z"></path><path d="M48,20.1c0-3.6-2.2-6.8-5.5-8.1C42.4,5.4,37,0,30.3,0C26.1,0,22.2,2.2,20,5.7c-1.1-0.4-2.3-0.6-3.5-0.6   c-4.2,0-7.9,2.5-9.4,6.4C3,12.3,0,15.9,0,20.1c0,3.9,2.5,7.3,6.2,8.4v8.8c0,0.6,0.4,1,1,1h3.6V47c0,0.6,0.4,1,1,1h24.5   c0.6,0,1-0.4,1-1v-8.7h3.6c0.6,0,1-0.4,1-1v-8.8C45.5,27.4,48,24,48,20.1z M8.2,36.3V20.6h7.2v15.6H8.2z M39.9,36.3h-7.2V20.6h7.2   V36.3z M41.9,26.3v-6.7c0-0.6-0.4-1-1-1h-9.2c-0.6,0-1,0.4-1,1v17.6c0,0.6,0.4,1,1,1h3.6V46H25v-4.8h3.6c0.6,0,1-0.4,1-1V16.7   c0-0.6-0.4-1-1-1h-9.2c-0.6,0-1,0.4-1,1v23.5c0,0.6,0.4,1,1,1H23V46H12.7v-7.7h3.6c0.6,0,1-0.4,1-1V19.6c0-0.6-0.4-1-1-1H7.2   c-0.6,0-1,0.4-1,1v6.7c-2.5-1-4.2-3.5-4.2-6.2c0-3.4,2.6-6.3,6-6.7c0.4,0,0.7-0.3,0.8-0.7c1.1-3.3,4.2-5.6,7.7-5.6   c1.2,0,2.4,0.3,3.5,0.8c0.5,0.2,1.1,0,1.3-0.4c1.8-3.4,5.2-5.5,9-5.5c5.6,0,10.2,4.6,10.2,10.2c0,0.1,0,0.1,0,0.2   c0,0.1,0,0.2,0,0.3c0,0.4,0.3,0.8,0.7,1c2.8,0.9,4.8,3.5,4.8,6.5C46,22.9,44.3,25.3,41.9,26.3z M20.4,39.2V17.7h7.2v21.5H20.4z"></path></g></svg></g></svg>